<svg xmlns="http://www.w3.org/2000/svg" width="512.000000pt" height="512.000000pt" viewBox="0 0 512.000000 512.000000" preserveAspectRatio="xMidYMid meet"><g transform="translate(0.000000,512.000000) scale(0.100000,-0.100000)" fill="#dbdbdb" stroke="none"><path d="M3120 5101 c-339 -74 -601 -323 -691 -656 -19 -68 -23 -115 -27 -312 l-4 -233 -394 0 c-376 0 -397 -1 -434 -20 -26 -13 -47 -34 -60 -60 -19 -38 -20 -58 -20 -580 l0 -540 -685 0 c-668 0 -687 -1 -725 -20 -26 -13 -47 -34 -60 -60 -20 -39 -20 -57 -20 -1124 0 -771 3 -1100 11 -1138 37 -172 175 -310 347 -347 75 -16 4328 -16 4404 0 170 36 311 178 347 347 8 38 11 542 11 1738 0 1669 0 1685 -20 1724 -13 26 -34 47 -60 60 -37 19 -58 20 -439 20 l-399 0 -4 233 c-4 197 -8 244 -27 312 -85 317 -332 564 -646 646 -116 30 -294 35 -405 10z m324 -301 c113 -29 190 -73 276 -160 87 -86 131 -163 160 -276 17 -64 20 -111 20 -271 l0 -193 -600 0 -600 0 0 193 c0 160 3 207 20 271 29 114 73 190 160 277 154 154 359 212 564 159z m-1034 -1290 c0 -110 18 -154 78 -188 49 -27 91 -28 142 -2 60 31 80 78 80 190 l0 90 600 0 600 0 0 -90 c0 -110 18 -154 78 -188 49 -27 91 -28 142 -2 60 31 80 78 80 190 l0 90 305 0 305 0 0 -1590 c0 -1575 0 -1591 -20 -1630 -13 -26 -34 -47 -60 -60 -38 -19 -58 -20 -591 -20 l-551 0 8 28 c4 15 9 528 11 1139 3 1103 3 1113 -17 1153 -13 26 -34 47 -60 60 -38 20 -57 20 -895 20 l-855 0 0 450 0 450 310 0 310 0 0 -90z m910 -2100 c0 -973 0 -991 -20 -1030 -13 -26 -34 -47 -60 -60 -39 -20 -56 -20 -1430 -20 -1374 0 -1391 0 -1430 20 -26 13 -47 34 -60 60 -20 39 -20 57 -20 1030 l0 990 1510 0 1510 0 0 -990z"></path><path d="M988 2079 c-24 -12 -46 -35 -59 -61 -20 -39 -21 -53 -16 -203 4 -118 10 -181 26 -240 86 -322 339 -570 668 -652 103 -26 323 -23 428 6 317 85 562 331 646 646 16 59 22 122 26 240 5 150 4 164 -16 203 -24 47 -80 82 -131 82 -50 0 -107 -35 -130 -80 -17 -33 -20 -59 -20 -163 0 -217 -48 -345 -180 -477 -86 -87 -162 -131 -276 -160 -98 -25 -190 -25 -288 0 -111 28 -189 73 -276 160 -132 130 -180 259 -180 477 0 104 -3 130 -20 163 -37 73 -127 99 -202 59z"></path></g></svg>